<svg width="800" height="800" viewBox="0 0 800 800" fill="none" xmlns="http://www.w3.org/2000/svg">
<g clip-path="url(#clip0_3533_202)">
<path d="M242.784 225.518L225.946 207.289C230.409 203.206 234.094 199.99 238.81 196.232L231.493 187.018C216.985 198.563 203.616 211.625 191.728 225.879L200.743 233.431C204.754 228.626 209 224.001 213.354 219.484L231.077 236.882L242.784 225.518Z" fill="#2633F2"/>
<path d="M209.848 243.205C206.163 247.559 202.333 252.419 198.629 257.641L187.97 250.269C191.818 244.759 195.178 240.242 199.316 235.184L189.885 228.138C178.087 242.609 167.988 257.641 159.424 274.172L169.596 280.368C172.378 274.985 174.926 270.432 178.196 265.084L189.451 271.877C186.235 277.189 183.345 282.392 181.032 287.234L191.167 293.431C198.611 278.453 208.313 263.205 219.171 250.251L209.866 243.223L209.848 243.205Z" fill="#2633F2"/>
<path d="M278.339 156.883C273.425 159.412 268.511 162.104 263.759 164.922L267.788 189.439L246.722 175.871C241.7 179.267 237.003 182.863 232.197 186.602L265.765 207.18L283.813 195.708L278.339 156.901V156.883Z" fill="#2633F2"/>
<path d="M340.235 160.569C328.004 163.496 315.61 167.615 303.65 172.746L302.765 170.198C312.557 166.061 322.602 162.52 332.828 159.72L330.859 151.59C320.272 154.498 309.883 158.13 300.037 162.375L299.314 160.298C311.148 155.329 323.578 150.993 337.579 147.344L334.671 135.962C314.562 141.274 297.598 147.507 280.94 155.709L295.448 189.548C310.642 182.032 327.245 175.781 342.783 172.041L340.217 160.569H340.235Z" fill="#2633F2"/>
<path d="M508.942 178.762C497.722 173.107 485.6 168.229 473.152 164.399L474.127 161.87C484.281 165.032 494.217 168.826 503.829 173.324L507.569 165.845C497.596 161.202 487.352 157.281 477.072 154.156L477.849 152.114C490.098 155.962 502.365 160.714 515.428 166.983L520.559 156.414C501.787 147.471 484.805 141.238 466.792 136.739L456.042 171.951C472.483 176.034 489.213 182.014 503.486 189.205L508.924 178.798L508.942 178.762Z" fill="#2633F2"/>
<path d="M431.02 166.983L425.564 166.369C404.679 164.002 403.487 155.944 404.011 151.392L404.065 150.958L422.384 153.036C422.547 153.054 422.673 153.198 422.673 153.361C422.655 155.041 423.414 157.516 429.376 158.203H429.557C435.356 158.889 436.657 157.643 436.838 156.179V156.071C437 154.644 436.476 153.325 429.701 152.385L422.583 151.392C408.256 149.332 405.438 143.984 406.07 138.438L406.124 138.004C406.829 131.789 412.104 127.833 429.123 129.766L434.417 130.362C453.044 132.458 456.729 138.221 456.079 144.038L456.043 144.382L438.012 142.34C437.849 142.322 437.741 142.196 437.723 142.033C437.669 140.768 436.856 138.889 431.201 138.257L430.966 138.221C425.365 137.571 424.498 138.456 424.354 139.72V139.775C424.191 141.148 425.347 142.196 431.4 143.027L438.247 143.93C452.05 145.827 456.801 149.675 455.988 156.848L455.916 157.516C455.23 163.623 450.731 169.223 431.056 166.983H431.02Z" fill="#2633F2"/>
<path fill-rule="evenodd" clip-rule="evenodd" d="M183.688 309.763C185.458 305.499 187.066 301.85 189.089 297.695L168.873 288.3C168.53 288.191 168.295 288.3 168.168 288.625L159.821 312.871C159.803 312.979 159.821 313.033 159.912 313.069L165.693 315.075C165.693 315.075 165.82 315.075 165.856 315.002L168.71 306.656C168.764 306.475 168.855 306.457 168.963 306.656C171.222 310.07 169.668 316.032 168.421 319.429C167.301 322.446 166.199 325.192 163.923 326.854C160.363 329.42 153.841 326.999 152.541 322.861C151.33 319.013 153.679 313.232 155.359 309.275C156.407 306.8 158.232 304.036 161.195 303.729L166.542 287.74C152.125 284.199 145.892 303.313 142.694 313.25C139.749 322.319 137.563 334.93 147.608 340.729C150.553 342.428 154.004 343.783 156.877 344.126C168.475 345.445 174.275 334.334 177.707 325.246C179.803 319.736 180.959 314.135 179.912 308.227C179.912 308.119 179.948 308.119 180.02 308.137L183.669 309.853V309.799L183.688 309.763Z" fill="#2633F2"/>
<path d="M401.68 164.634C401.228 164.056 400.975 162.863 400.741 160.786L400.325 153.722C400.325 153.451 400.217 153.216 400.199 152.981V152.854C399.44 149.187 396.784 146.838 392.647 146.17C392.321 146.134 392.267 145.682 392.574 145.555C395.393 144.291 398.844 141.689 398.338 137.082L398.302 136.612C397.615 130.759 392.683 128.699 385.059 129.133H385.023C371.147 129.711 357.453 131.319 343.849 134.011L349.522 170.668L364.878 167.669L363.144 155.51L376.676 153.902C381.933 153.306 384.029 155.311 384.444 159.105L385.004 163.243C385.059 163.676 385.203 164.76 385.203 164.76C385.239 165.067 385.51 165.284 385.817 165.266L401.788 164.923V164.634H401.698H401.68ZM378.446 144.273L362.096 146.134C361.915 146.134 361.753 146.025 361.717 145.863L361.211 141.328C361.211 141.147 361.319 140.985 361.5 140.967L377.85 139.106C380.56 138.799 381.644 139.774 381.807 141.238V141.292C381.987 142.755 381.138 143.966 378.428 144.273H378.446Z" fill="#2633F2"/>
<path d="M633.168 374.369L657.793 371.497C658.461 377.495 658.877 382.391 659.13 388.407L670.873 387.937C670.114 369.401 667.459 350.865 662.978 332.852L651.596 335.689C653.114 341.759 654.324 347.938 655.408 354.117L630.928 358.182L633.204 374.351L633.168 374.369Z" fill="#2633F2"/>
<path d="M638.335 337.279C636.998 331.732 635.336 325.788 633.312 319.7L645.525 315.418C647.712 321.777 649.356 327.179 651 333.485L662.255 330.016C657.54 311.931 651.379 294.912 643.086 278.219L632.084 282.79C634.776 288.21 636.944 292.961 639.329 298.761L627.224 303.873C624.839 298.146 622.346 292.726 619.835 288.011L608.868 292.564C616.546 307.414 623.159 324.271 627.188 340.675L638.335 337.279Z" fill="#2633F2"/>
<path d="M667.567 443.601C668.435 438.127 669.139 432.563 669.681 427.07L647.55 415.887L670.91 406.854C671.127 400.801 671 394.858 670.819 388.769L634.433 403.764L633.06 425.119L667.585 443.601H667.567Z" fill="#2633F2"/>
<path d="M628.11 491.514C632.951 479.898 636.926 467.45 639.853 454.731L642.436 455.508C639.997 465.86 636.944 476.086 633.168 486.004L640.883 489.22C644.785 478.922 647.965 468.389 650.35 457.91L652.445 458.543C649.482 471.063 645.634 483.655 640.341 497.151L651.235 501.523C658.805 482.12 663.791 464.74 666.989 446.42L631.145 438.182C628.254 454.893 623.503 472.039 617.36 486.799L628.128 491.496L628.11 491.514Z" fill="#2633F2"/>
<path d="M513.983 617.258C525.148 611.531 536.223 604.593 546.666 596.77L548.129 599.047C539.602 605.388 530.677 611.187 521.39 616.336L525.22 623.78C534.832 618.45 544.046 612.47 552.628 606.002L553.82 607.845C543.504 615.469 532.447 622.606 519.674 629.471L525.184 639.859C543.468 629.959 558.481 619.896 572.736 607.972L550.676 578.505C537.686 589.399 523.016 599.426 508.798 606.689L514.001 617.222V617.258H513.983Z" fill="#2633F2"/>
<path d="M569.411 561.143L573.115 557.096C587.333 541.595 594.542 545.389 597.902 548.497L598.228 548.804L585.762 562.39C585.653 562.516 585.472 562.534 585.328 562.426C583.973 561.432 581.534 560.565 577.469 565.01L577.342 565.154C573.404 569.454 573.621 571.243 574.723 572.236L574.795 572.308C575.861 573.284 577.216 573.609 582.004 568.695L587.008 563.528C597.107 553.158 603.087 554.043 607.189 557.819L607.514 558.108C612.103 562.336 612.193 568.948 600.612 581.595L596.999 585.533C584.334 599.354 577.505 598.957 573.205 594.982L572.952 594.765L585.22 581.378C585.328 581.251 585.509 581.233 585.635 581.324C586.665 582.028 588.688 582.462 592.537 578.27L592.699 578.09C596.511 573.934 596.331 572.724 595.373 571.839L595.337 571.803C594.307 570.863 592.808 571.188 588.562 575.597L583.792 580.583C574.127 590.628 568.219 592.2 562.925 587.322L562.437 586.87C557.921 582.697 556.06 575.777 569.447 561.179L569.411 561.143Z" fill="#2633F2"/>
<path fill-rule="evenodd" clip-rule="evenodd" d="M600.07 276.882C602.455 280.839 604.46 284.271 606.61 288.372L626.104 277.55C626.411 277.352 626.447 277.081 626.231 276.792L611.597 255.744C611.597 255.744 611.47 255.654 611.38 255.708L606.339 259.213C606.339 259.213 606.267 259.321 606.303 259.375L611.362 266.602C611.47 266.747 611.434 266.837 611.235 266.819C607.152 266.62 603.25 261.869 601.262 258.851C599.492 256.178 597.92 253.666 597.938 250.848C597.938 246.458 603.756 242.591 607.875 244.001C611.687 245.283 614.975 250.595 617.161 254.299C618.534 256.611 619.709 259.719 618.209 262.284L627.947 276.051C639.293 266.476 627.55 250.161 621.443 241.706C615.842 233.974 606.99 224.76 596.385 229.493C593.277 230.866 590.151 232.872 588.2 234.985C580.305 243.585 585.834 254.841 591.127 262.971C594.361 267.921 598.155 272.149 603.539 274.786C603.629 274.822 603.593 274.877 603.539 274.931L600.016 276.882H600.034H600.07Z" fill="#2633F2"/>
<path d="M588.598 538.813C589.339 538.777 590.423 539.3 592.248 540.33L598.173 544.142C598.408 544.269 598.625 544.359 598.86 544.468L598.986 544.522C602.383 546.075 605.852 545.317 608.833 542.372C609.068 542.137 609.429 542.354 609.375 542.661C608.743 545.696 608.797 550.032 612.826 552.308L613.241 552.543C618.354 555.452 622.925 552.67 627.062 546.274C627.062 546.274 627.062 546.274 627.098 546.256C634.831 534.693 641.606 522.661 647.441 510.069L614.524 493.032L607.875 507.214L618.715 512.977L612.049 524.865C609.447 529.472 606.574 529.978 603.25 528.081L599.583 526.094C599.221 525.877 598.228 525.353 598.228 525.353C597.975 525.208 597.613 525.299 597.469 525.534L588.327 538.632L588.58 538.777L588.598 538.813ZM618.733 532.02L626.881 517.693C626.972 517.53 627.17 517.476 627.333 517.566L631.29 519.825C631.452 519.915 631.488 520.114 631.398 520.276L623.25 534.603C621.895 536.97 620.468 537.277 619.203 536.536L619.167 536.5C617.884 535.759 617.414 534.386 618.751 532.02H618.733Z" fill="#2633F2"/>
<path d="M317.995 618.975L309.576 642.335C303.921 640.257 299.35 638.45 293.858 635.975L289.052 646.689C305.945 654.295 323.686 660.185 341.771 664.214L344.318 652.741C338.212 651.386 332.159 649.724 326.143 647.935L333.442 624.178L317.995 618.993V618.975Z" fill="#2633F2"/>
<path d="M348.798 640.167C354.345 641.449 360.415 642.624 366.757 643.509L365.131 656.372C358.464 655.487 352.918 654.566 346.54 653.229L344.607 664.846C362.854 668.694 380.831 670.772 399.439 670.79L400.252 658.902C394.2 658.902 388.997 658.721 382.764 658.27L383.613 645.135C389.792 645.551 395.736 645.731 401.101 645.587L401.932 633.717C385.239 633.97 367.244 632.362 350.768 628.64L348.816 640.149L348.798 640.167Z" fill="#2633F2"/>
<path d="M240.796 618.902C245.313 622.136 249.956 625.244 254.635 628.17L274.509 613.338L272.16 638.306C277.472 641.215 282.838 643.726 288.366 646.309L291.202 606.996L272.72 596.229L240.814 618.92L240.796 618.902Z" fill="#2633F2"/>
<path d="M215.612 562.118C223.832 571.639 233.19 580.763 243.217 589.074L241.375 591.043C233.19 584.25 225.44 576.933 218.267 569.11L211.944 574.602C219.388 582.696 227.391 590.248 235.684 597.059L234.184 598.649C224.32 590.429 214.799 581.341 205.097 570.555L196.334 578.36C210.282 593.807 223.615 606.038 238.538 617.095L261.88 588.64C248.24 578.577 235.033 566.671 224.609 554.566L215.612 562.118Z" fill="#2633F2"/>
<path d="M154.167 403.673C154.311 416.266 155.558 429.274 157.889 442.119L155.197 442.426C153.336 431.948 152.125 421.361 151.692 410.737L143.327 410.846C143.797 421.848 145.043 432.779 146.994 443.348L144.826 443.601C142.604 430.936 141.177 417.856 140.725 403.348L129 403.655C129.687 424.468 131.981 442.426 136.263 460.511L172.432 453.881C168.494 437.386 166.109 419.735 165.928 403.764L154.185 403.709L154.167 403.673Z" fill="#2633F2"/>
<path d="M179.551 478.434L181.502 483.565C188.999 503.221 182.405 507.991 178.123 509.635L177.726 509.78L171.15 492.526C171.095 492.363 171.15 492.183 171.312 492.11C172.812 491.352 174.673 489.545 172.523 483.926L172.468 483.745C170.391 478.289 168.692 477.711 167.301 478.217L167.211 478.253C165.892 478.759 164.971 479.843 167.211 486.311L169.596 493.104C174.347 506.78 170.897 511.749 165.693 513.754L165.296 513.899C159.46 516.139 153.535 513.248 147.41 497.205L145.495 492.219C138.81 474.694 142.207 468.75 147.663 466.654L147.97 466.528L154.456 483.511C154.51 483.655 154.456 483.836 154.311 483.908C153.209 484.54 151.927 486.13 153.95 491.442L154.04 491.677C156.046 496.934 157.22 497.332 158.413 496.862H158.467C159.768 496.356 160.147 494.838 158.105 489.075L155.775 482.589C151.114 469.437 152.342 463.439 159.081 460.873L159.695 460.62C165.422 458.416 172.45 459.843 179.532 478.38L179.551 478.434Z" fill="#2633F2"/>
<path fill-rule="evenodd" clip-rule="evenodd" d="M419.855 632.867C415.266 633.247 411.291 633.5 406.666 633.608L407.624 655.902C407.678 656.264 407.876 656.426 408.238 656.372L433.567 652.668C433.676 652.668 433.712 652.596 433.712 652.488L432.827 646.417C432.827 646.417 432.772 646.309 432.682 646.309L423.956 647.592C423.775 647.592 423.721 647.555 423.829 647.393C425.817 643.816 431.833 642.443 435.392 641.991C438.572 641.611 441.535 641.322 444.028 642.587C447.948 644.574 448.797 651.494 445.708 654.547C442.854 657.384 436.639 657.962 432.375 658.269C429.701 658.45 426.413 658.124 424.769 655.631L408.129 658.197C411.634 672.632 431.453 669.416 441.697 667.718C451.11 666.164 463.269 662.352 463.793 650.717C463.937 647.321 463.558 643.635 462.528 640.925C458.391 630.013 445.853 629.922 436.205 631.061C430.351 631.747 424.877 633.247 420.108 636.914C420.035 636.968 419.999 636.914 419.963 636.86L419.8 632.831L419.855 632.867Z" fill="#2633F2"/>
<path d="M190.95 505.588C190.661 506.256 189.704 507.015 187.969 508.208L181.917 511.821C181.7 511.965 181.519 512.128 181.321 512.291L181.212 512.363C178.322 514.712 177.436 518.162 178.737 522.155C178.846 522.462 178.484 522.715 178.231 522.516C175.792 520.601 171.908 518.704 168.06 521.288L167.662 521.559C162.784 524.847 163.236 530.177 167.102 536.753C167.102 536.753 167.102 536.753 167.102 536.789C173.986 548.876 181.718 560.312 190.372 571.17L220.272 549.273L210.571 536.988L200.598 544.124L192.956 532.85C190.011 528.46 190.842 525.678 194.003 523.528L197.4 521.143C197.761 520.908 198.647 520.258 198.647 520.258C198.9 520.095 198.99 519.752 198.809 519.481L191.167 505.443L190.932 505.606L190.95 505.588ZM183.579 535.615L192.739 549.291C192.829 549.436 192.793 549.634 192.648 549.743L188.873 552.272C188.728 552.362 188.529 552.326 188.421 552.182L179.261 538.505C177.743 536.247 178.123 534.82 179.333 534.007H179.369C180.598 533.158 182.043 533.356 183.561 535.615H183.579Z" fill="#2633F2"/>
<path d="M138.485 371.715C139.624 365.843 144.754 362.103 150.608 363.259C156.516 364.416 159.876 369.8 158.738 375.671C157.582 381.597 152.451 385.319 146.543 384.181C140.689 383.042 137.311 377.659 138.467 371.733L138.485 371.715Z" fill="#2633F2"/>
<path d="M488.256 624.648C493.965 622.859 499.674 625.623 501.463 631.332C503.251 637.096 500.126 642.606 494.399 644.377C488.635 646.165 482.944 643.437 481.138 637.656C479.349 631.929 482.475 626.436 488.238 624.63L488.256 624.648Z" fill="#2633F2"/>
<path fill-rule="evenodd" clip-rule="evenodd" d="M399.747 568.208C493.369 568.208 569.249 492.31 569.249 398.706C569.249 377.532 565.364 357.261 558.264 338.562L560.125 319.141C572.031 343.115 578.734 370.125 578.734 398.706C578.734 497.567 498.59 577.711 399.729 577.711C300.868 577.711 220.725 497.567 220.725 398.706C220.725 319.592 272.052 252.475 343.199 228.807C342.675 232.493 341.825 238.816 341.753 239.376C276.677 263.062 230.21 325.446 230.21 398.706C230.21 492.328 306.108 568.208 399.711 568.208H399.747ZM391.31 229.403C394.11 229.259 396.929 229.205 399.747 229.205C429.106 229.205 456.729 236.666 480.812 249.819C482.384 247.47 484.462 244.399 486.16 241.924C460.542 227.777 431.075 219.72 399.747 219.72C395.194 219.72 390.678 219.882 386.197 220.226L391.292 229.422L391.31 229.403Z" fill="#4355A5"/>
<path fill-rule="evenodd" clip-rule="evenodd" d="M396.333 473.537C377.056 475.29 359.64 476.88 346.614 474.26C303.488 465.57 271.42 431.785 271.42 431.785C270.318 431.044 271.294 429.455 272.396 429.942C272.396 429.942 317.725 452.797 346.595 453.664C375.466 454.531 385.71 449.581 409.847 434.333C409.847 434.333 409.106 433.465 408.618 433.592C407.625 433.863 406.378 434.351 404.824 434.965C396.478 438.235 379.296 444.974 346.595 439.861C318.411 435.453 292.088 422.607 279.785 415.905C275.178 413.393 272.414 408.588 272.269 403.33L272.034 395.327C272.034 394.965 272.161 394.712 272.396 394.459L289.631 380.096C294.184 376.302 297.4 371.172 298.809 365.426L300.544 358.398C301.862 353.069 297.743 347.956 292.251 348.082L290.914 348.118C279.333 348.408 267.897 345.625 257.744 340.061L344.373 338.886C347.734 338.832 350.968 337.622 353.533 335.454L399.748 296.267C409.684 287.83 422.295 283.205 435.321 283.205H458.663C462.529 277.713 466.829 271.118 471.418 264.072C472.755 262.031 480.162 247.794 481.535 245.68C458.988 233.54 425.384 226.223 397.977 226.223C396.694 226.223 397.182 238.815 395.918 238.851C401.265 250.396 405.945 262.573 409.413 272.762H401.59H397.977C384.445 272.762 371.275 277.189 360.489 285.373L339.82 301.055C339.206 301.543 338.213 301.055 338.213 300.314C338.755 292.383 330.408 283.53 330.751 275.328C331.13 266.511 333.822 240.748 333.822 240.748C274.672 264.199 226.777 331.19 226.777 398.705C226.777 461.36 265.061 520.402 317.562 546.617C337.779 538.36 352.883 525.768 362.747 517.548C378.664 504.305 393.749 491.73 423.957 484.721C453.098 477.964 477.037 478.415 494.742 481.216C464.318 467.34 427.823 470.665 396.315 473.537H396.333ZM564.967 453.682C566.214 445.606 572.7 406.474 572.7 398.037C572.7 385.896 569.394 363.674 566.828 352.31C566.015 365.625 555.789 390.376 556.657 404.035C557.072 410.539 564.732 447.25 564.967 453.682ZM499.494 273.738C510.876 282.826 520.975 293.431 529.502 305.264C526.919 316.791 524.552 325.318 524.552 325.318L519.783 319.266C511.111 308.263 500.993 298.453 489.72 290.124C489.72 290.124 493.73 282.645 499.476 273.738H499.494ZM404.698 326.655C399.278 329.98 395.592 335.761 395.339 342.536C394.852 353.484 403.343 362.716 414.291 363.204H415.158C425.619 363.204 434.345 354.966 434.851 344.379C434.978 342.409 434.725 340.567 434.363 338.832C425.619 331.443 415.664 328.245 404.698 326.655ZM345.222 327.595L396.116 286.854C399.748 283.982 397.598 282.229 396.622 282.229C386.649 282.157 376.966 285.427 369.088 291.534L320.2 329.419H340.073C341.952 329.419 343.777 328.787 345.24 327.613L345.222 327.595ZM251.962 379.338V389.13C251.962 398.524 255.034 407.648 260.707 415.146V390.774L251.962 379.338ZM251.962 379.338C251.962 378.362 251.601 378.47 251.962 379.338Z" fill="#2633F2"/>
<path d="M578.752 392.184C578.083 372.564 574.145 354.045 567.641 336.503C567.641 336.448 567.641 336.394 567.641 336.34C565.437 330.432 562.925 324.669 560.143 319.068C560.143 319.086 560.143 319.104 560.143 319.141L558.282 338.562C558.282 338.562 558.282 338.58 558.282 338.598C557.686 344.362 557.054 350.017 556.403 355.527C554.56 371.263 555.608 387.667 556.656 404.018C557.523 417.514 558.391 430.991 557.614 443.999C557.036 453.846 555.5 463.421 552.338 472.581C524.877 529.166 466.883 568.19 399.747 568.19C369.937 568.19 341.916 560.475 317.58 546.961C337.887 538.217 350.57 527.666 362.765 517.513C378.681 504.27 393.767 491.695 423.975 484.685C433.08 482.572 441.68 481.162 449.756 480.313C467.479 478.434 482.583 479.265 494.76 481.181C480.614 474.731 465.167 471.985 449.503 471.208C431.49 470.304 413.207 471.967 396.333 473.502C377.055 475.273 359.639 476.863 346.595 474.225C323.632 469.6 303.795 457.856 290.281 447.884C284.717 443.783 280.236 439.989 277.02 437.116C273.895 434.298 271.98 432.364 271.51 431.877C271.474 431.84 271.456 431.822 271.438 431.804C271.42 431.786 271.402 431.768 271.402 431.768C270.3 431.027 271.275 429.438 272.377 429.925C272.377 429.925 272.431 429.962 272.558 430.016C272.666 430.07 272.811 430.142 273.01 430.233C274.057 430.756 276.37 431.877 279.622 433.358C283.524 435.147 288.764 437.477 294.762 439.898C310.263 446.167 330.859 453.159 346.595 453.629C360.434 454.044 369.991 453.123 378.844 450.377C387.353 447.739 395.231 443.403 405.619 436.953C406.703 436.285 407.805 435.58 408.943 434.876C408.943 434.876 408.961 434.876 408.979 434.876C409.268 434.695 409.557 434.514 409.846 434.316C409.846 434.316 409.106 433.448 408.618 433.575C407.642 433.846 406.378 434.334 404.824 434.948C399.585 437.008 390.895 440.422 377.074 441.416C368.835 442.012 358.79 441.759 346.577 439.844C318.393 435.436 292.07 422.59 279.766 415.87C275.159 413.358 272.395 408.553 272.251 403.295L272.016 395.292C272.016 394.93 272.142 394.677 272.377 394.424L289.613 380.061C294.166 376.285 297.381 371.136 298.791 365.391L300.525 358.363C301.573 354.136 299.206 350.053 295.448 348.607C294.455 348.228 293.371 348.029 292.232 348.047L290.896 348.083C279.315 348.372 267.879 345.59 257.725 340.026L344.355 338.851C347.715 338.797 350.949 337.587 353.515 335.419L399.729 296.232C409.666 287.795 422.276 283.17 435.302 283.17H458.645C462.511 277.678 466.811 271.083 471.4 264.037C474.399 259.412 477.542 254.588 480.794 249.747C482.203 247.651 483.992 244.995 485.582 242.682C485.763 242.411 485.961 242.14 486.142 241.869C483.45 240.388 480.722 238.961 477.94 237.606C475.013 236.178 472.05 234.842 469.051 233.577C468.979 233.541 468.888 233.505 468.816 233.487C467.461 232.926 466.106 232.366 464.733 231.842C464.336 231.68 463.92 231.535 463.523 231.391C462.475 230.993 461.409 230.596 460.361 230.216C459.837 230.018 459.295 229.837 458.771 229.656C457.832 229.331 456.892 229.006 455.953 228.699C455.338 228.5 454.742 228.301 454.128 228.103C453.261 227.832 452.375 227.561 451.508 227.29C450.84 227.091 450.189 226.892 449.521 226.693C448.69 226.459 447.841 226.224 447.01 225.989C446.305 225.79 445.6 225.609 444.896 225.411C444.083 225.194 443.252 224.995 442.439 224.796C441.716 224.616 440.975 224.435 440.253 224.254C439.458 224.074 438.681 223.911 437.886 223.731C436.314 223.387 434.742 223.062 433.171 222.773C432.52 222.647 431.888 222.52 431.237 222.412C430.334 222.249 429.431 222.105 428.527 221.96C427.859 221.852 427.19 221.743 426.522 221.635C425.619 221.508 424.733 221.382 423.83 221.255C423.144 221.165 422.457 221.075 421.752 220.984C420.867 220.876 419.964 220.768 419.079 220.677C418.356 220.605 417.633 220.533 416.929 220.46C416.061 220.37 415.176 220.298 414.309 220.226C413.55 220.171 412.773 220.117 412.014 220.063C411.183 220.009 410.334 219.955 409.485 219.9C408.618 219.846 407.751 219.828 406.865 219.792C406.125 219.756 405.384 219.72 404.625 219.702C403.216 219.666 401.789 219.647 400.38 219.647C400.181 219.647 399.964 219.647 399.765 219.647C398.663 219.647 397.579 219.684 396.495 219.702C396.495 219.702 396.495 219.702 396.495 219.684C393.063 219.738 389.666 219.9 386.288 220.135L391.382 229.331C397.019 240.243 402.168 252.547 406.269 263.604C407.444 266.747 408.51 269.801 409.503 272.691H398.067C384.535 272.691 371.364 277.118 360.579 285.302L339.91 300.984C339.296 301.471 338.302 300.984 338.302 300.243C338.339 299.863 338.357 299.466 338.375 299.087C338.375 299.05 338.375 299.014 338.375 298.996C338.519 296.72 338.664 294.425 338.772 292.131C338.808 291.535 338.826 290.957 338.863 290.36C339.115 285.573 339.314 280.713 339.531 275.871C340.073 263.188 340.615 250.56 341.844 239.304C341.916 238.744 342.765 232.439 343.289 228.735C343.289 228.735 343.289 228.717 343.289 228.699C340.019 229.783 336.767 230.957 333.587 232.222C333.587 232.258 333.587 232.276 333.587 232.312C267.535 258.653 220.833 323.169 220.833 398.616C220.833 459.049 250.788 512.49 296.659 544.902L306.343 551.279C333.551 567.973 365.565 577.62 399.838 577.62C491.797 577.62 567.55 508.262 577.668 419.013C577.776 418.543 577.885 418.056 577.993 417.568C578.625 411.407 578.969 405.156 578.969 398.833C578.969 396.574 578.914 394.334 578.824 392.094L578.752 392.184ZM369.088 291.535C374.056 287.687 379.765 284.958 385.8 283.495C386.902 283.224 388.004 283.007 389.124 282.827C390.262 282.646 391.4 282.501 392.557 282.411C392.557 282.411 392.593 282.411 392.611 282.411C393.948 282.303 395.285 282.248 396.64 282.267C397.579 282.267 399.567 283.856 396.64 286.476C396.64 286.476 396.622 286.494 396.604 286.512C396.459 286.639 396.315 286.765 396.134 286.91L345.24 327.65C343.777 328.824 341.952 329.457 340.073 329.457H320.2L369.088 291.571V291.535ZM260.706 415.147C256.189 409.185 253.317 402.157 252.341 394.804C252.161 393.467 252.052 392.13 251.998 390.793C251.98 390.251 251.962 389.691 251.962 389.149V379.357L260.706 390.793V415.165V415.147ZM269.794 419.573C270.191 419.989 270.625 420.404 271.058 420.802C270.625 420.838 270.209 420.91 269.794 421.019V419.591V419.573Z" fill="#2633F2"/>
<path d="M519.782 319.266L524.551 325.319C524.551 325.319 525.762 320.947 527.388 314.244C532.591 292.943 542.112 248.066 531.073 244.597C516.566 240.044 489.719 290.125 489.719 290.125C500.017 297.731 509.339 306.565 517.487 316.43C518.264 317.369 519.023 318.309 519.782 319.266Z" fill="#2633F2"/>
<path d="M566.864 216.142C563.937 205.302 558.752 194.372 548.635 189.837C539.565 185.79 530.46 187.236 522.474 191.156C514.706 194.968 507.389 201.364 500.722 208.536C487.461 222.791 474.67 242.447 464.065 258.744L463.812 259.141C460.253 264.615 456.947 269.674 453.911 274.154H435.339C430.172 274.154 425.077 274.787 420.127 275.979L418.031 269.836C412.774 254.371 404.68 234.119 395.538 218.112C391.003 210.18 385.908 202.737 380.416 197.461C375.231 192.475 367.517 187.434 358.483 189.693C350.913 191.59 345.674 196.721 342.133 202.719C338.664 208.572 336.478 215.799 334.978 223.333C331.997 238.22 331.184 257.009 330.426 275.004V275.546C330.046 283.784 329.703 291.914 329.161 299.701V300.008L329.143 300.315C329.143 303.838 330.877 306.44 332.883 308.066L304.121 330.36L353.551 335.473L399.766 296.286C409.702 287.849 422.313 283.224 435.339 283.224H458.681C462.547 277.732 466.847 271.137 471.436 264.091C492.971 230.993 521.246 187.543 544.931 198.13C569.43 209.078 563.811 292.691 556.404 355.527L565.419 356.593C569.123 325.084 572.447 287.957 571.706 257.154C571.327 241.815 569.935 227.524 566.864 216.142ZM396.622 286.44C396.622 286.44 396.604 286.458 396.586 286.476C396.441 286.602 396.297 286.729 396.116 286.873L345.222 327.614C343.759 328.788 341.934 329.42 340.055 329.42H320.182L369.07 291.535C374.039 287.686 379.748 284.958 385.782 283.495C386.884 283.224 387.986 283.007 389.106 282.826C390.244 282.646 391.383 282.501 392.539 282.411C392.539 282.411 392.575 282.411 392.593 282.411C393.93 282.302 395.267 282.248 396.622 282.266C397.561 282.266 399.549 283.856 396.622 286.476V286.44ZM397.995 272.781C384.463 272.781 371.292 277.208 360.507 285.392L339.838 301.074C339.224 301.562 338.23 301.074 338.23 300.333C338.267 299.954 338.285 299.556 338.303 299.177C338.303 299.141 338.303 299.104 338.303 299.086C338.447 296.81 338.592 294.516 338.7 292.221C338.736 291.625 338.772 291.047 338.791 290.451C339.043 285.663 339.242 280.803 339.459 275.961C341.031 239.195 342.585 203.062 360.669 198.545C376.261 194.643 395.086 233.721 406.179 263.712C407.354 266.855 408.419 269.909 409.413 272.799H397.977L397.995 272.781Z" fill="#2633F2"/>
</g>
<defs>
<clipPath id="clip0_3533_202">
<rect width="542" height="541.729" fill="white" transform="translate(129 129.06)"/>
</clipPath>
</defs>
</svg>
